<svg width="185" height="176" viewBox="0 0 185 176" fill="none" xmlns="http://www.w3.org/2000/svg">
<path d="M136.271 79.125C162.976 79.125 184.625 100.774 184.625 127.479C184.625 154.184 162.976 175.833 136.271 175.833C109.566 175.833 87.9167 154.184 87.9167 127.479C87.9167 100.774 109.566 79.125 136.271 79.125ZM136.271 96.7016L135.481 96.7724C133.686 97.0981 132.272 98.513 131.946 100.307L131.875 101.097L131.872 123.077L109.875 123.083L109.085 123.154C107.291 123.48 105.876 124.895 105.55 126.689L105.479 127.479L105.55 128.269C105.876 130.064 107.291 131.478 109.085 131.804L109.875 131.875L131.881 131.868L131.885 153.885L131.956 154.675C132.281 156.469 133.696 157.884 135.49 158.21L136.281 158.281L137.071 158.21C138.865 157.884 140.28 156.469 140.606 154.675L140.676 153.885L140.672 131.868L162.686 131.875L163.476 131.804C165.27 131.478 166.685 130.064 167.011 128.269L167.082 127.479L167.011 126.689C166.685 124.895 165.27 123.48 163.476 123.154L162.686 123.083L140.664 123.077L140.667 101.097L140.596 100.307C140.27 98.513 138.855 97.0981 137.061 96.7724L136.271 96.7016ZM107.733 61.5417C115.07 61.5417 121.474 65.5362 124.889 71.4691C98.7772 76.7482 79.125 99.8187 79.125 127.479C79.125 138.813 82.4245 149.376 88.1153 158.261L87.9428 158.25C66.088 158.25 48.3711 140.533 48.3711 118.678V81.3229C48.3711 70.398 57.2275 61.5417 68.1524 61.5417H107.733ZM47.5317 61.544C43.0168 66.2499 40.0971 72.498 39.6419 79.4193L39.5794 81.3229V118.678C39.5794 126.122 41.261 133.172 44.2649 139.471C41.3716 140.254 38.3228 140.667 35.1776 140.667C15.7495 140.667 0 124.917 0 105.489V81.3229C0 70.8532 8.13371 62.2833 18.4269 61.5873L19.7812 61.5417L47.5317 61.544ZM156.052 61.5417C166.977 61.5417 175.833 70.398 175.833 81.3229L175.841 86.2494C165.572 76.3919 151.629 70.3333 136.271 70.3333L134.133 70.3726C132.766 67.0773 130.792 64.0857 128.354 61.544L156.052 61.5417ZM145.062 8.79167C157.201 8.79167 167.042 18.6321 167.042 30.7708C167.042 42.9096 157.201 52.75 145.062 52.75C132.924 52.75 123.083 42.9096 123.083 30.7708C123.083 18.6321 132.924 8.79167 145.062 8.79167ZM87.9167 0C102.483 0 114.292 11.8085 114.292 26.375C114.292 40.9415 102.483 52.75 87.9167 52.75C73.3502 52.75 61.5417 40.9415 61.5417 26.375C61.5417 11.8085 73.3502 0 87.9167 0ZM30.7708 8.79167C42.9096 8.79167 52.75 18.6321 52.75 30.7708C52.75 42.9096 42.9096 52.75 30.7708 52.75C18.6321 52.75 8.79167 42.9096 8.79167 30.7708C8.79167 18.6321 18.6321 8.79167 30.7708 8.79167Z" fill="#212121"/>
</svg>
