<svg width="33" height="33" viewBox="0 0 33 33" fill="none" xmlns="http://www.w3.org/2000/svg">
<path d="M29.5431 15.2346L27.2294 10.1498C27.0139 9.67502 26.4534 9.46665 25.981 9.6821C25.5068 9.89754 25.2974 10.4571 25.5134 10.9304L27.0997 14.4176H20.9702C20.4497 14.4176 20.0273 14.84 20.0273 15.3605C20.0273 15.8809 20.4497 16.3033 20.9702 16.3033H27.4241L25.5124 20.5047C25.2965 20.978 25.5058 21.5376 25.9801 21.753C26.1069 21.8101 26.2394 21.8379 26.3699 21.8379C26.7282 21.8379 27.0705 21.6323 27.2284 21.2854L29.5568 16.168C29.6058 16.0756 29.6379 15.9761 29.6539 15.8734C29.6949 15.6546 29.6539 15.4279 29.5431 15.2346Z" fill="black"/>
<path d="M24.3178 22.4291C23.7973 22.4291 23.3749 22.851 23.3749 23.3719V27.1462H18.1892V7.19816C18.1892 6.38636 17.8074 5.66602 17.0366 5.40909L11.5671 3.57476H23.3749V8.28622C23.3749 8.80667 23.7973 9.22907 24.3178 9.22907C24.8383 9.22907 25.2607 8.80667 25.2607 8.28622V2.62907C25.2607 2.10862 25.2621 1.68904 24.7411 1.68904H5.94434L5.79113 1.63766C5.59643 1.5726 5.46396 1.54102 5.2636 1.54102C4.87279 1.54102 4.34903 1.66264 4.02374 1.89694C3.53204 2.25146 3.10352 2.82047 3.10352 3.42673V25.8535C3.10352 26.6649 3.76022 27.3857 4.53006 27.6426L15.9132 31.414C16.1079 31.4786 16.3436 31.5107 16.5435 31.5107C16.9348 31.5107 17.2011 31.389 17.5259 31.1543C18.0176 30.7998 18.1892 30.2307 18.1892 29.625V29.0319H24.7411C25.2616 29.0319 25.2607 28.6067 25.2607 28.0862V23.3719C25.2607 22.851 24.8387 22.4291 24.3178 22.4291ZM16.3035 29.625L4.98923 25.8535V3.57476V3.53752L5.09153 3.46256L16.3035 7.19816V29.625Z" fill="black"/>
</svg>
