<svg width="177" height="160" viewBox="0 0 177 160" fill="none" xmlns="http://www.w3.org/2000/svg">
<path d="M112.872 61.95C121.425 61.95 128.36 68.8848 128.36 77.4375V119.465C128.36 141.465 110.525 159.3 88.5242 159.3C66.5237 159.3 48.6888 141.465 48.6888 119.465V77.4375C48.6888 68.8848 55.6236 61.95 64.1763 61.95H112.872ZM45.4116 61.9431C42.3175 65.6836 40.3228 70.3644 39.9183 75.4946L39.8423 77.4375V119.465C39.8423 126.956 41.5362 134.053 44.5577 140.393C41.6469 141.182 38.577 141.597 35.4104 141.597C15.8539 141.6 0 125.746 0 106.19V77.4375C0 69.31 6.25723 62.6483 14.2188 62.0018L15.4875 61.95L45.4116 61.9431ZM131.64 61.9431L161.512 61.95C170.065 61.95 177 68.8848 177 77.4375V106.2C177 125.749 161.15 141.6 141.6 141.6C138.447 141.6 135.388 141.189 132.477 140.414C135.139 134.859 136.767 128.726 137.134 122.258L137.213 119.468V77.4375C137.21 71.5502 135.122 66.1503 131.64 61.9431ZM88.5 0C103.165 0 115.05 11.8887 115.05 26.55C115.05 41.2147 103.165 53.1 88.5 53.1C73.8353 53.1 61.95 41.2147 61.95 26.55C61.95 11.8887 73.8353 0 88.5 0ZM146.025 8.85C158.246 8.85 168.15 18.7544 168.15 30.975C168.15 43.1956 158.246 53.1 146.025 53.1C133.804 53.1 123.9 43.1956 123.9 30.975C123.9 18.7544 133.804 8.85 146.025 8.85ZM30.975 8.85C43.1956 8.85 53.1 18.7544 53.1 30.975C53.1 43.1956 43.1956 53.1 30.975 53.1C18.7544 53.1 8.85 43.1956 8.85 30.975C8.85 18.7544 18.7544 8.85 30.975 8.85Z" fill="#212121"/>
</svg>
